<svg width="130" height="73" viewBox="0 0 130 73" fill="none" xmlns="http://www.w3.org/2000/svg">
<path fill-rule="evenodd" clip-rule="evenodd" d="M57.7778 57.7778V70.8832V72.2223H72.2223V57.7778H57.7778Z" fill="url(#paint0_linear_40_1115)"/>
<path fill-rule="evenodd" clip-rule="evenodd" d="M57.7778 28.8887V41.994V43.3331H72.2223V28.8887H57.7778Z" fill="url(#paint1_linear_40_1115)"/>
<path fill-rule="evenodd" clip-rule="evenodd" d="M72.2222 28.8887V41.994V43.3331H86.6666V28.8887H72.2222Z" fill="url(#paint2_linear_40_1115)"/>
<path fill-rule="evenodd" clip-rule="evenodd" d="M86.6665 0V13.1053V14.4444H101.111V0L86.6665 0Z" fill="#46D2E7"/>
<path fill-rule="evenodd" clip-rule="evenodd" d="M101.111 0V13.1053V14.4444H115.555V0L101.111 0Z" fill="url(#paint3_linear_40_1115)"/>
<path fill-rule="evenodd" clip-rule="evenodd" d="M115.556 0V13.1053V14.4444H130V0L115.556 0Z" fill="url(#paint4_linear_40_1115)"/>
<path fill-rule="evenodd" clip-rule="evenodd" d="M101.111 28.8887V41.994V43.3331H115.555V28.8887H101.111Z" fill="url(#paint5_linear_40_1115)"/>
<path fill-rule="evenodd" clip-rule="evenodd" d="M115.556 28.8887V41.994V43.3331H130V28.8887H115.556Z" fill="#FF58BC"/>
<path fill-rule="evenodd" clip-rule="evenodd" d="M86.6665 57.7778V70.8832V72.2223H101.111V57.7778H86.6665Z" fill="#F7A44A"/>
<path fill-rule="evenodd" clip-rule="evenodd" d="M101.111 57.7778V70.8832V72.2223H115.555V57.7778H101.111Z" fill="url(#paint6_linear_40_1115)"/>
<path fill-rule="evenodd" clip-rule="evenodd" d="M115.556 57.7778V70.8832V72.2223H130V57.7778H115.556Z" fill="url(#paint7_linear_40_1115)"/>
<path fill-rule="evenodd" clip-rule="evenodd" d="M72.2222 0L47.6516 0L36.0961 31.7477L24.4954 0L0 0L0 65.4815L0 72.2222H14.4444L14.4444 14.4745L30.228 57.7778H41.9942L43.7998 52.8125L57.7778 14.4745L57.8079 14.4445H72.2222V0Z" fill="url(#paint8_linear_40_1115)"/>
<defs>
<linearGradient id="paint0_linear_40_1115" x1="65.0001" y1="57.7778" x2="65.0001" y2="72.2223" gradientUnits="userSpaceOnUse">
<stop stop-color="#0078FF"/>
<stop offset="1" stop-color="#7C24D7"/>
</linearGradient>
<linearGradient id="paint1_linear_40_1115" x1="65.0001" y1="28.8887" x2="65.0001" y2="43.3331" gradientUnits="userSpaceOnUse">
<stop stop-color="#0078FF"/>
<stop offset="1" stop-color="#7C24D7"/>
</linearGradient>
<linearGradient id="paint2_linear_40_1115" x1="79.4444" y1="28.8887" x2="79.4444" y2="43.3331" gradientUnits="userSpaceOnUse">
<stop stop-color="#0078FF"/>
<stop offset="1" stop-color="#7C24D7"/>
</linearGradient>
<linearGradient id="paint3_linear_40_1115" x1="108.333" y1="0" x2="108.333" y2="14.4444" gradientUnits="userSpaceOnUse">
<stop stop-color="#0078FF"/>
<stop offset="1" stop-color="#7C24D7"/>
</linearGradient>
<linearGradient id="paint4_linear_40_1115" x1="122.778" y1="0" x2="122.778" y2="14.4444" gradientUnits="userSpaceOnUse">
<stop stop-color="#0078FF"/>
<stop offset="1" stop-color="#7C24D7"/>
</linearGradient>
<linearGradient id="paint5_linear_40_1115" x1="108.333" y1="28.8887" x2="108.333" y2="43.3331" gradientUnits="userSpaceOnUse">
<stop stop-color="#0078FF"/>
<stop offset="1" stop-color="#7C24D7"/>
</linearGradient>
<linearGradient id="paint6_linear_40_1115" x1="108.333" y1="57.7778" x2="108.333" y2="72.2223" gradientUnits="userSpaceOnUse">
<stop stop-color="#0078FF"/>
<stop offset="1" stop-color="#7C24D7"/>
</linearGradient>
<linearGradient id="paint7_linear_40_1115" x1="122.778" y1="57.7778" x2="122.778" y2="72.2223" gradientUnits="userSpaceOnUse">
<stop stop-color="#0078FF"/>
<stop offset="1" stop-color="#7C24D7"/>
</linearGradient>
<linearGradient id="paint8_linear_40_1115" x1="36.1111" y1="0" x2="36.1111" y2="72.2222" gradientUnits="userSpaceOnUse">
<stop stop-color="#0078FF"/>
<stop offset="1" stop-color="#7C24D7"/>
</linearGradient>
</defs>
</svg>
