<svg width="120" height="122" viewBox="0 0 120 122" fill="none" xmlns="http://www.w3.org/2000/svg">
<g clip-path="url(#clip0_81_1046)">
<path fill-rule="evenodd" clip-rule="evenodd" d="M53.335 81.3452L53.3354 93.671L53.3355 94.9305L66.6684 94.9299L66.6679 81.3446L53.335 81.3452Z" fill="url(#paint0_linear_81_1046)"/>
<path fill-rule="evenodd" clip-rule="evenodd" d="M53.3325 54.1748L53.333 66.5006L53.333 67.7601L66.6659 67.7595L66.6654 54.1742L53.3325 54.1748Z" fill="url(#paint1_linear_81_1046)"/>
<path fill-rule="evenodd" clip-rule="evenodd" d="M66.6665 54.1743L66.6669 66.5001L66.667 67.7596L79.9999 67.759L79.9994 54.1737L66.6665 54.1743Z" fill="url(#paint2_linear_81_1046)"/>
<path fill-rule="evenodd" clip-rule="evenodd" d="M79.9976 27.0024L79.998 39.3283L79.998 40.5877L93.3309 40.5871L93.3305 27.0018L79.9976 27.0024Z" fill="#46D2E7"/>
<path fill-rule="evenodd" clip-rule="evenodd" d="M93.3315 27.0024L93.3319 39.3283L93.332 40.5877L106.665 40.5871L106.664 27.0018L93.3315 27.0024Z" fill="url(#paint3_linear_81_1046)"/>
<path fill-rule="evenodd" clip-rule="evenodd" d="M106.664 27.0024L106.664 39.3283L106.665 40.5877L119.997 40.5871L119.997 27.0018L106.664 27.0024Z" fill="url(#paint4_linear_81_1046)"/>
<path fill-rule="evenodd" clip-rule="evenodd" d="M93.332 54.1733L93.3325 66.4992L93.3325 67.7586L106.665 67.758L106.665 54.1727L93.332 54.1733Z" fill="url(#paint5_linear_81_1046)"/>
<path fill-rule="evenodd" clip-rule="evenodd" d="M106.665 54.1724L106.665 66.4982L106.665 67.7576L119.998 67.757L119.997 54.1718L106.665 54.1724Z" fill="#FF58BC"/>
<path fill-rule="evenodd" clip-rule="evenodd" d="M79.9995 81.3433L80 93.6691L80 94.9286L93.3329 94.928L93.3324 81.3427L79.9995 81.3433Z" fill="#F7A44A"/>
<path fill-rule="evenodd" clip-rule="evenodd" d="M93.3325 81.3433L93.333 93.6691L93.333 94.9286L106.666 94.928L106.665 81.3427L93.3325 81.3433Z" fill="url(#paint6_linear_81_1046)"/>
<path fill-rule="evenodd" clip-rule="evenodd" d="M106.667 81.3433L106.667 93.6691L106.667 94.9286L120 94.928L119.999 81.3427L106.667 81.3433Z" fill="url(#paint7_linear_81_1046)"/>
<path fill-rule="evenodd" clip-rule="evenodd" d="M66.665 27.0026L43.9852 27.0037L33.3198 56.8636L22.6109 27.0047L0.000488281 27.0059L0.00247222 88.5925L0.00267645 94.9323L13.3356 94.9317L13.3338 40.6188L27.9041 81.3456L38.7649 81.3451L40.4314 76.6751L53.3326 40.6168L53.3603 40.5885L66.6655 40.5879L66.665 27.0026Z" fill="url(#paint8_linear_81_1046)"/>
</g>
<defs>
<linearGradient id="paint0_linear_81_1046" x1="60.0014" y1="81.3449" x2="60.002" y2="94.9302" gradientUnits="userSpaceOnUse">
<stop stop-color="#0078FF"/>
<stop offset="1" stop-color="#7C24D7"/>
</linearGradient>
<linearGradient id="paint1_linear_81_1046" x1="59.999" y1="54.1745" x2="59.9996" y2="67.7598" gradientUnits="userSpaceOnUse">
<stop stop-color="#0078FF"/>
<stop offset="1" stop-color="#7C24D7"/>
</linearGradient>
<linearGradient id="paint2_linear_81_1046" x1="73.333" y1="54.174" x2="73.3336" y2="67.7593" gradientUnits="userSpaceOnUse">
<stop stop-color="#0078FF"/>
<stop offset="1" stop-color="#7C24D7"/>
</linearGradient>
<linearGradient id="paint3_linear_81_1046" x1="99.998" y1="27.0021" x2="99.9987" y2="40.5874" gradientUnits="userSpaceOnUse">
<stop stop-color="#0078FF"/>
<stop offset="1" stop-color="#7C24D7"/>
</linearGradient>
<linearGradient id="paint4_linear_81_1046" x1="113.331" y1="27.0021" x2="113.331" y2="40.5874" gradientUnits="userSpaceOnUse">
<stop stop-color="#0078FF"/>
<stop offset="1" stop-color="#7C24D7"/>
</linearGradient>
<linearGradient id="paint5_linear_81_1046" x1="99.9985" y1="54.173" x2="99.9991" y2="67.7583" gradientUnits="userSpaceOnUse">
<stop stop-color="#0078FF"/>
<stop offset="1" stop-color="#7C24D7"/>
</linearGradient>
<linearGradient id="paint6_linear_81_1046" x1="99.999" y1="81.343" x2="99.9996" y2="94.9283" gradientUnits="userSpaceOnUse">
<stop stop-color="#0078FF"/>
<stop offset="1" stop-color="#7C24D7"/>
</linearGradient>
<linearGradient id="paint7_linear_81_1046" x1="113.333" y1="81.343" x2="113.334" y2="94.9283" gradientUnits="userSpaceOnUse">
<stop stop-color="#0078FF"/>
<stop offset="1" stop-color="#7C24D7"/>
</linearGradient>
<linearGradient id="paint8_linear_81_1046" x1="33.3328" y1="27.0042" x2="33.3361" y2="94.9307" gradientUnits="userSpaceOnUse">
<stop stop-color="#0078FF"/>
<stop offset="1" stop-color="#7C24D7"/>
</linearGradient>
<clipPath id="clip0_81_1046">
<rect width="120" height="122" fill="white"/>
</clipPath>
</defs>
</svg>
