<svg width="248" height="111" viewBox="0 0 248 111" fill="none" xmlns="http://www.w3.org/2000/svg">
<g filter="url(#filter0_d_54_1060)">
<path fill-rule="evenodd" clip-rule="evenodd" d="M116.778 57.7778V70.8832V72.2223H131.222V57.7778H116.778Z" fill="url(#paint0_linear_54_1060)"/>
<path fill-rule="evenodd" clip-rule="evenodd" d="M116.778 28.8889V41.9942V43.3334H131.222V28.8889H116.778Z" fill="url(#paint1_linear_54_1060)"/>
<path fill-rule="evenodd" clip-rule="evenodd" d="M131.222 28.8889V41.9942V43.3334H145.667V28.8889H131.222Z" fill="url(#paint2_linear_54_1060)"/>
<path fill-rule="evenodd" clip-rule="evenodd" d="M145.667 0V13.1053V14.4444H160.111V0L145.667 0Z" fill="#46D2E7"/>
<path fill-rule="evenodd" clip-rule="evenodd" d="M160.111 0V13.1053V14.4444H174.555V0L160.111 0Z" fill="url(#paint3_linear_54_1060)"/>
<path fill-rule="evenodd" clip-rule="evenodd" d="M174.556 0V13.1053V14.4444H189V0L174.556 0Z" fill="url(#paint4_linear_54_1060)"/>
<path fill-rule="evenodd" clip-rule="evenodd" d="M160.111 28.8889V41.9942V43.3334H174.555V28.8889H160.111Z" fill="url(#paint5_linear_54_1060)"/>
<path fill-rule="evenodd" clip-rule="evenodd" d="M174.556 28.8889V41.9942V43.3334H189V28.8889H174.556Z" fill="#FF58BC"/>
<path fill-rule="evenodd" clip-rule="evenodd" d="M145.667 57.7778V70.8832V72.2223H160.111V57.7778H145.667Z" fill="#F7A44A"/>
<path fill-rule="evenodd" clip-rule="evenodd" d="M160.111 57.7778V70.8832V72.2223H174.555V57.7778H160.111Z" fill="url(#paint6_linear_54_1060)"/>
<path fill-rule="evenodd" clip-rule="evenodd" d="M174.556 57.7778V70.8832V72.2223H189V57.7778H174.556Z" fill="url(#paint7_linear_54_1060)"/>
<path fill-rule="evenodd" clip-rule="evenodd" d="M131.222 0L106.652 0L95.0961 31.7477L83.4954 0L59 0V65.4815V72.2222H73.4444V14.4745L89.228 57.7778H100.994L102.8 52.8125L116.778 14.4745L116.808 14.4445H131.222V0Z" fill="url(#paint8_linear_54_1060)"/>
<path d="M94.2708 98.7046H79.6826V102.227H94.2708V98.7046Z" fill="#1362FA"/>
<path d="M94.0184 83.6484H79.6826V87.171H94.0184V83.6484Z" fill="#1362FA"/>
<path d="M123.686 83.6531H115.858V102.225H119.976V96.905H123.633C128.057 96.905 131.104 94.193 131.104 90.279C131.104 86.3928 128.057 83.6531 123.686 83.6531ZM122.628 93.5908H119.731V86.9649H122.628C124.965 86.9649 126.593 88.3197 126.593 90.279C126.593 92.2082 124.965 93.5908 122.628 93.5908Z" fill="#1362FA"/>
<path d="M137.366 98.7046H146.211V102.225H133.249V83.6555H145.958V87.1735H137.366V91.1384H144.942V94.2695H137.366V98.7046Z" fill="#1362FA"/>
<path d="M160.748 95.2886C163.113 94.5034 164.713 92.4168 164.713 89.9132C164.713 86.21 161.793 83.6555 157.599 83.6555H148.831V102.227H153.101V95.8606H156.786L160.343 102.227H165.121L160.748 95.2886ZM156.909 92.7827H153.097V86.965H156.909C158.917 86.965 160.443 88.0373 160.443 89.9132C160.443 91.6363 158.917 92.7827 156.909 92.7827Z" fill="#1362FA"/>
<path d="M172.029 83.6531H167.759V102.225H172.029V83.6531Z" fill="#1362FA"/>
<path d="M179.628 98.7046H188.473V102.225H175.513V83.6555H188.22V87.1735H179.628V91.1384H187.204V94.2695H179.628V98.7046Z" fill="#1362FA"/>
<path d="M203.059 96.9306V83.6555H207.128V102.225H202.426L195.131 88.9753V102.225H191.087V83.6555H195.791L203.059 96.9306Z" fill="#1362FA"/>
<path d="M235.155 98.7046H244V102.225H231.038V83.6555H243.748V87.1735H235.155V91.1384H242.731V94.2695H235.155V98.7046Z" fill="#1362FA"/>
<path d="M224.217 95.8396C223.48 97.7642 221.593 99.1237 219.501 99.1237C216.301 99.1237 214.013 96.5645 214.013 92.9401C214.013 89.3156 216.273 86.7565 219.501 86.7565C221.674 86.7565 223.566 88.1831 224.235 90.2258H228.397C227.732 86.0246 223.971 83 219.4 83C213.809 83 209.74 87.1733 209.74 92.9401C209.74 98.7068 213.807 102.88 219.4 102.88C224.025 102.88 227.783 99.9366 228.395 95.842H224.217V95.8396Z" fill="#1362FA"/>
<path d="M108.788 92.4145L114.663 83.6555H109.855L106.217 89.3018V95.7471L110.001 102.225H114.807L108.788 92.4145Z" fill="#1362FA"/>
<path d="M8.17103 102.225H4V83.6531H9.6185L14.753 97.294L19.8342 83.6531H25.5291V102.225H21.3604V88.9473L16.3533 102.225H13.1526L8.17103 88.9473V102.225ZM33.1254 98.7045H41.9701V102.227H29.0077V83.6531H41.7176V87.1733H33.1254V91.1406H40.7009V94.2717H33.1254V98.7045ZM48.7025 98.7045H57.5472V102.227H44.5848V83.6531H57.2947V87.1733H48.7025V91.1406H56.278V94.2717H48.7025V98.7045ZM63.9531 87.3053H58.5129V83.6531H73.6593V87.3053H68.2214V102.225H63.9531V87.3053ZM86.5383 94.545H96.6914V91.3397H86.5383V94.545ZM79.6831 94.545H83.9745V91.3397H79.6831V94.545Z" fill="#1362FA"/>
<path d="M104.01 89.1582L100.547 83.6555H95.8183L101.425 92.4168L95.6724 102.225H100.408L104.01 95.9092V89.1582Z" fill="#1362FA"/>
</g>
<defs>
<filter id="filter0_d_54_1060" x="0" y="0" width="248" height="110.88" filterUnits="userSpaceOnUse" color-interpolation-filters="sRGB">
<feFlood flood-opacity="0" result="BackgroundImageFix"/>
<feColorMatrix in="SourceAlpha" type="matrix" values="0 0 0 0 0 0 0 0 0 0 0 0 0 0 0 0 0 0 127 0" result="hardAlpha"/>
<feOffset dy="4"/>
<feGaussianBlur stdDeviation="2"/>
<feComposite in2="hardAlpha" operator="out"/>
<feColorMatrix type="matrix" values="0 0 0 0 0 0 0 0 0 0 0 0 0 0 0 0 0 0 0.25 0"/>
<feBlend mode="normal" in2="BackgroundImageFix" result="effect1_dropShadow_54_1060"/>
<feBlend mode="normal" in="SourceGraphic" in2="effect1_dropShadow_54_1060" result="shape"/>
</filter>
<linearGradient id="paint0_linear_54_1060" x1="124" y1="57.7778" x2="124" y2="72.2223" gradientUnits="userSpaceOnUse">
<stop stop-color="#0078FF"/>
<stop offset="1" stop-color="#7C24D7"/>
</linearGradient>
<linearGradient id="paint1_linear_54_1060" x1="124" y1="28.8889" x2="124" y2="43.3334" gradientUnits="userSpaceOnUse">
<stop stop-color="#0078FF"/>
<stop offset="1" stop-color="#7C24D7"/>
</linearGradient>
<linearGradient id="paint2_linear_54_1060" x1="138.444" y1="28.8889" x2="138.444" y2="43.3334" gradientUnits="userSpaceOnUse">
<stop stop-color="#0078FF"/>
<stop offset="1" stop-color="#7C24D7"/>
</linearGradient>
<linearGradient id="paint3_linear_54_1060" x1="167.333" y1="0" x2="167.333" y2="14.4444" gradientUnits="userSpaceOnUse">
<stop stop-color="#0078FF"/>
<stop offset="1" stop-color="#7C24D7"/>
</linearGradient>
<linearGradient id="paint4_linear_54_1060" x1="181.778" y1="0" x2="181.778" y2="14.4444" gradientUnits="userSpaceOnUse">
<stop stop-color="#0078FF"/>
<stop offset="1" stop-color="#7C24D7"/>
</linearGradient>
<linearGradient id="paint5_linear_54_1060" x1="167.333" y1="28.8889" x2="167.333" y2="43.3334" gradientUnits="userSpaceOnUse">
<stop stop-color="#0078FF"/>
<stop offset="1" stop-color="#7C24D7"/>
</linearGradient>
<linearGradient id="paint6_linear_54_1060" x1="167.333" y1="57.7778" x2="167.333" y2="72.2223" gradientUnits="userSpaceOnUse">
<stop stop-color="#0078FF"/>
<stop offset="1" stop-color="#7C24D7"/>
</linearGradient>
<linearGradient id="paint7_linear_54_1060" x1="181.778" y1="57.7778" x2="181.778" y2="72.2223" gradientUnits="userSpaceOnUse">
<stop stop-color="#0078FF"/>
<stop offset="1" stop-color="#7C24D7"/>
</linearGradient>
<linearGradient id="paint8_linear_54_1060" x1="95.1111" y1="0" x2="95.1111" y2="72.2222" gradientUnits="userSpaceOnUse">
<stop stop-color="#0078FF"/>
<stop offset="1" stop-color="#7C24D7"/>
</linearGradient>
</defs>
</svg>
